<?xml version="1.0" encoding="UTF-8"?>
<svg xmlns="http://www.w3.org/2000/svg" xmlns:xlink="http://www.w3.org/1999/xlink" width="px" height="0px" viewBox="0 0 567 189" version="1.1">
<g id="surface1">
<path style=" stroke:none;fill-rule:nonzero;fill:rgb(0%,0%,0%);fill-opacity:1;" d="M 13.140625 58.597656 L 35.859375 58.597656 L 47.160156 78.859375 L 58.460938 58.597656 L 81.179688 58.597656 L 47.160156 119.390625 Z M 13.140625 58.597656 "/>
<path style=" stroke:none;fill-rule:nonzero;fill:rgb(0%,0%,0%);fill-opacity:1;" d="M 107.308594 119.285156 L 96.003906 99.015625 L 88.964844 111.492188 L 103.046875 111.492188 L 88.964844 119.390625 L 88.964844 111.492188 L 84.703125 119.285156 L 61.984375 119.285156 L 96.003906 58.492188 L 130.027344 119.285156 Z M 107.308594 119.285156 "/>
<path style=" stroke:none;fill-rule:nonzero;fill:rgb(0%,0%,0%);fill-opacity:1;" d="M 154.773438 94.429688 L 154.773438 119.390625 L 134.292969 119.390625 L 134.292969 58.597656 L 178.980469 83.660156 L 178.980469 58.597656 L 199.460938 58.597656 L 199.460938 119.390625 Z M 154.773438 94.429688 "/>
<path style=" stroke:none;fill-rule:nonzero;fill:rgb(0%,0%,0%);fill-opacity:1;" d="M 250.976562 88.992188 L 271.765625 88.992188 L 271.765625 105.523438 C 268.496094 109.789062 264.121094 113.203125 258.640625 115.765625 C 253.167969 118.320312 247.164062 119.597656 240.621094 119.597656 C 235.578125 119.597656 230.8125 118.800781 226.328125 117.203125 C 221.851562 115.605469 217.921875 113.421875 214.546875 110.648438 C 211.171875 107.875 208.523438 104.636719 206.601562 100.941406 C 204.683594 97.242188 203.726562 93.257812 203.726562 88.992188 C 203.726562 84.800781 204.683594 80.855469 206.601562 77.160156 C 208.523438 73.460938 211.171875 70.207031 214.546875 67.398438 C 217.921875 64.585938 221.851562 62.398438 226.328125 60.835938 C 230.8125 59.273438 235.578125 58.492188 240.621094 58.492188 C 247.164062 58.492188 253.167969 59.773438 258.640625 62.335938 C 264.121094 64.894531 268.496094 68.304688 271.765625 72.566406 L 250.976562 83.554688 C 249.90625 82.132812 248.464844 80.992188 246.652344 80.140625 C 244.839844 79.285156 242.828125 78.859375 240.621094 78.859375 C 237.28125 78.859375 234.402344 79.855469 231.984375 81.847656 C 229.570312 83.84375 228.359375 86.222656 228.359375 88.992188 C 228.359375 91.835938 229.570312 94.25 231.984375 96.242188 C 234.402344 98.238281 237.28125 99.234375 240.621094 99.234375 C 242.828125 99.234375 244.839844 98.804688 246.652344 97.953125 C 248.464844 97.097656 249.90625 95.960938 250.976562 94.535156 Z M 250.976562 88.992188 "/>
<path style=" stroke:none;fill-rule:nonzero;fill:rgb(0%,0%,0%);fill-opacity:1;" d="M 321.355469 58.597656 L 344.074219 58.597656 L 344.074219 88.992188 C 344.074219 93.257812 343.183594 97.242188 341.410156 100.941406 C 339.628906 104.636719 337.195312 107.875 334.105469 110.648438 C 331.015625 113.421875 327.410156 115.605469 323.285156 117.203125 C 319.160156 118.800781 314.746094 119.597656 310.054688 119.597656 C 305.359375 119.597656 300.949219 118.800781 296.824219 117.203125 C 292.707031 115.605469 289.097656 113.421875 286.003906 110.648438 C 282.910156 107.875 280.476562 104.636719 278.699219 100.941406 C 276.921875 97.242188 276.035156 93.257812 276.035156 88.992188 L 276.035156 58.597656 L 298.753906 58.597656 L 298.753906 88.992188 C 298.753906 91.835938 299.851562 94.25 302.054688 96.242188 C 304.261719 98.238281 306.929688 99.234375 310.054688 99.234375 C 313.183594 99.234375 315.851562 98.238281 318.054688 96.242188 C 320.253906 94.25 321.355469 91.835938 321.355469 88.992188 Z M 321.355469 58.597656 "/>
<path style=" stroke:none;fill-rule:nonzero;fill:rgb(0%,0%,0%);fill-opacity:1;" d="M 386.199219 119.285156 L 374.898438 99.015625 L 367.855469 111.492188 L 381.941406 111.492188 L 367.855469 119.390625 L 367.855469 111.492188 L 363.597656 119.285156 L 340.878906 119.285156 L 374.898438 58.492188 L 408.921875 119.285156 Z M 386.199219 119.285156 "/>
<path style=" stroke:none;fill-rule:nonzero;fill:rgb(0%,0%,0%);fill-opacity:1;" d="M 481.230469 84.085938 C 481.230469 87.859375 480.390625 91.363281 478.71875 94.597656 C 477.050781 97.828125 474.792969 100.582031 471.949219 102.859375 L 481.230469 119.390625 L 458.511719 119.390625 L 453.074219 109.578125 C 453.074219 109.578125 452.484375 109.578125 451.3125 109.578125 C 450.136719 109.578125 448.699219 109.578125 446.988281 109.578125 C 445.285156 109.578125 443.582031 109.578125 441.875 109.578125 C 440.167969 109.578125 438.742188 109.578125 437.605469 109.578125 C 436.472656 109.578125 435.90625 109.578125 435.90625 109.578125 L 435.90625 119.390625 L 413.1875 119.390625 L 413.1875 58.597656 L 452.863281 58.597656 C 458.050781 58.597656 462.792969 59.753906 467.09375 62.066406 C 471.398438 64.375 474.828125 67.445312 477.386719 71.285156 C 479.949219 75.125 481.230469 79.394531 481.230469 84.085938 Z M 435.90625 78.859375 L 435.90625 88.992188 L 452.863281 88.992188 C 454.425781 88.992188 455.753906 88.5 456.855469 87.503906 C 457.957031 86.503906 458.511719 85.292969 458.511719 83.867188 C 458.511719 82.523438 457.957031 81.351562 456.855469 80.359375 C 455.753906 79.359375 454.425781 78.859375 452.863281 78.859375 Z M 435.90625 78.859375 "/>
<path style=" stroke:none;fill-rule:nonzero;fill:rgb(0%,0%,0%);fill-opacity:1;" d="M 526.238281 58.597656 C 530.007812 58.597656 533.542969 59.398438 536.851562 61.003906 C 540.15625 62.601562 543.050781 64.785156 545.539062 67.554688 C 548.03125 70.328125 549.988281 73.546875 551.402344 77.210938 C 552.824219 80.875 553.539062 84.800781 553.539062 88.992188 C 553.539062 93.1875 552.824219 97.117188 551.402344 100.785156 C 549.988281 104.445312 548.03125 107.679688 545.539062 110.484375 C 543.050781 113.289062 540.15625 115.476562 536.851562 117.046875 C 533.542969 118.609375 530.007812 119.390625 526.238281 119.390625 L 485.496094 119.390625 L 485.496094 58.597656 Z M 521.757812 99.128906 C 524.242188 99.128906 526.375 98.132812 528.152344 96.140625 C 529.929688 94.148438 530.820312 91.765625 530.820312 88.992188 C 530.820312 86.222656 529.929688 83.84375 528.152344 81.847656 C 526.375 79.855469 524.242188 78.859375 521.757812 78.859375 L 508.214844 78.859375 L 508.214844 99.128906 Z M 521.757812 99.128906 "/>
<path style=" stroke:none;fill-rule:nonzero;fill:rgb(100%,100%,100%);fill-opacity:1;" d="M 183.648438 122.082031 C 184.097656 122.496094 184.414062 122.933594 184.59375 123.394531 C 184.773438 123.863281 184.867188 124.277344 184.867188 124.644531 C 184.867188 125.332031 184.664062 125.675781 184.261719 125.675781 C 184.101562 125.675781 183.652344 125.433594 182.917969 124.949219 C 182.1875 124.464844 181.253906 124.15625 180.117188 124.03125 C 179.21875 125.050781 178.210938 126.40625 177.09375 128.09375 C 175.984375 129.777344 174.917969 131.589844 173.898438 133.542969 C 172.882812 135.496094 172.046875 137.425781 171.398438 139.332031 C 170.75 141.246094 170.429688 142.96875 170.429688 144.511719 C 170.429688 145.574219 170.691406 146.488281 171.21875 147.261719 C 171.746094 148.03125 172.011719 148.558594 172.011719 148.84375 C 172.011719 149.128906 171.835938 149.339844 171.492188 149.480469 C 171.140625 149.625 170.683594 149.699219 170.117188 149.699219 C 169.34375 149.699219 168.46875 149.503906 167.492188 149.113281 C 166.515625 148.730469 165.6875 148.09375 165 147.199219 C 164.3125 146.300781 163.96875 145.121094 163.96875 143.65625 C 163.96875 142.765625 164.128906 141.824219 164.449219 140.832031 C 164.773438 139.832031 165.203125 138.808594 165.730469 137.75 C 163.984375 139.175781 162.167969 140.503906 160.273438 141.738281 C 158.382812 142.980469 156.492188 143.980469 154.605469 144.730469 C 152.714844 145.480469 150.878906 145.855469 149.09375 145.855469 C 147.386719 145.855469 145.679688 145.375 143.96875 144.417969 C 142.265625 143.464844 140.847656 142.167969 139.710938 140.519531 C 138.570312 138.875 138 136.996094 138 134.886719 C 138 132.609375 138.597656 130.070312 139.792969 127.269531 C 140.992188 124.464844 142.609375 121.589844 144.636719 118.644531 C 146.671875 115.695312 148.96875 112.859375 151.53125 110.136719 C 154.09375 107.414062 156.765625 104.964844 159.542969 102.792969 C 162.328125 100.621094 165.046875 98.894531 167.710938 97.613281 C 170.375 96.339844 172.824219 95.699219 175.054688 95.699219 C 176.804688 95.699219 178.359375 96.058594 179.71875 96.769531 C 181.078125 97.480469 182.148438 98.414062 182.917969 99.574219 C 183.6875 100.726562 184.074219 101.996094 184.074219 103.375 C 184.074219 104.875 183.667969 106.488281 182.855469 108.21875 C 182.042969 109.949219 180.976562 111.578125 179.65625 113.105469 C 178.335938 114.625 176.902344 115.871094 175.355469 116.84375 C 173.8125 117.816406 172.335938 118.300781 170.917969 118.300781 C 169.652344 118.300781 168.714844 117.90625 168.105469 117.113281 C 167.5 116.324219 167.199219 115.605469 167.199219 114.957031 C 167.199219 114.347656 167.421875 114.042969 167.867188 114.042969 C 169.328125 114.042969 170.792969 113.589844 172.25 112.675781 C 173.714844 111.761719 175.054688 110.613281 176.273438 109.230469 C 177.492188 107.847656 178.46875 106.425781 179.199219 104.957031 C 179.933594 103.496094 180.304688 102.214844 180.304688 101.113281 C 180.304688 100.386719 180.109375 99.800781 179.71875 99.355469 C 179.328125 98.902344 178.671875 98.675781 177.742188 98.675781 C 176.074219 98.675781 174.203125 99.199219 172.125 100.238281 C 170.054688 101.277344 167.902344 102.675781 165.667969 104.449219 C 163.4375 106.214844 161.234375 108.234375 159.054688 110.511719 C 156.878906 112.78125 154.816406 115.15625 152.867188 117.636719 C 150.921875 120.113281 149.195312 122.582031 147.6875 125.042969 C 146.1875 127.5 145 129.796875 144.125 131.925781 C 143.25 134.058594 142.8125 135.921875 142.8125 137.511719 C 142.8125 138.851562 143.1875 139.90625 143.9375 140.675781 C 144.695312 141.449219 145.886719 141.832031 147.511719 141.832031 C 149.578125 141.832031 151.742188 141.359375 154 140.40625 C 156.257812 139.449219 158.492188 138.21875 160.699219 136.71875 C 162.914062 135.214844 165.007812 133.636719 166.980469 131.988281 C 168.953125 130.34375 170.6875 128.800781 172.1875 127.363281 C 173.695312 125.921875 174.835938 124.792969 175.605469 123.980469 C 173.652344 124.140625 171.621094 124.472656 169.511719 124.980469 C 167.398438 125.488281 165.4375 126.128906 163.625 126.90625 C 161.820312 127.675781 160.347656 128.550781 159.210938 129.519531 C 158.070312 130.496094 157.5 131.527344 157.5 132.625 C 157.5 133.363281 157.296875 133.730469 156.898438 133.730469 C 156.484375 133.730469 155.984375 133.28125 155.398438 132.386719 C 154.8125 131.488281 154.523438 130.457031 154.523438 129.28125 C 154.523438 128.628906 154.640625 127.96875 154.886719 127.300781 C 155.128906 126.628906 155.574219 125.964844 156.21875 125.3125 C 156.914062 124.625 157.96875 123.976562 159.386719 123.363281 C 160.808594 122.753906 162.445312 122.207031 164.292969 121.71875 C 166.148438 121.234375 168.066406 120.847656 170.054688 120.5625 C 172.046875 120.277344 173.960938 120.136719 175.792969 120.136719 C 177.578125 120.136719 179.160156 120.289062 180.542969 120.59375 C 181.921875 120.902344 182.960938 121.394531 183.648438 122.082031 Z M 183.648438 122.082031 "/>
<path style=" stroke:none;fill-rule:nonzero;fill:rgb(100%,100%,100%);fill-opacity:1;" d="M 210.28125 125.5 C 210.398438 125.375 210.542969 125.3125 210.710938 125.3125 C 211.035156 125.3125 211.320312 125.488281 211.5625 125.832031 C 211.804688 126.183594 211.929688 126.535156 211.929688 126.894531 C 211.929688 127.183594 211.84375 127.40625 211.679688 127.574219 C 211.234375 128.019531 210.453125 128.777344 209.335938 129.855469 C 208.214844 130.933594 206.867188 132.121094 205.28125 133.425781 C 203.699219 134.726562 201.960938 135.988281 200.074219 137.207031 C 198.183594 138.425781 196.234375 139.425781 194.21875 140.21875 C 192.210938 141.011719 190.234375 141.40625 188.28125 141.40625 C 186.617188 141.40625 185.222656 140.820312 184.105469 139.644531 C 182.984375 138.464844 182.429688 137.101562 182.429688 135.550781 C 182.429688 134.378906 182.8125 132.925781 183.585938 131.199219 C 184.355469 129.46875 185.359375 127.660156 186.59375 125.769531 C 187.835938 123.882812 189.179688 122.113281 190.625 120.46875 C 192.070312 118.824219 193.472656 117.484375 194.835938 116.449219 C 196.195312 115.414062 197.359375 114.894531 198.335938 114.894531 C 199.390625 114.894531 200.304688 115.128906 201.074219 115.59375 C 201.851562 116.058594 202.460938 116.628906 202.90625 117.300781 C 203.351562 117.96875 203.574219 118.589844 203.574219 119.15625 C 203.574219 120.175781 203.1875 121.488281 202.417969 123.09375 C 201.648438 124.699219 200.578125 126.324219 199.21875 127.96875 C 197.859375 129.613281 196.28125 131.050781 194.492188 132.269531 C 192.703125 133.488281 190.816406 134.238281 188.824219 134.519531 L 188.824219 134.644531 L 188.773438 134.949219 C 188.773438 136.53125 189.5625 137.324219 191.148438 137.324219 C 192.445312 137.324219 193.867188 136.980469 195.40625 136.292969 C 196.953125 135.597656 198.511719 134.734375 200.074219 133.699219 C 201.636719 132.664062 203.128906 131.589844 204.554688 130.46875 C 205.976562 129.351562 207.183594 128.339844 208.179688 127.425781 C 209.171875 126.511719 209.871094 125.871094 210.28125 125.5 Z M 190.167969 130.5625 C 191.148438 130.394531 192.121094 129.917969 193.09375 129.125 C 194.066406 128.332031 194.992188 127.378906 195.867188 126.261719 C 196.742188 125.144531 197.511719 124.007812 198.179688 122.855469 C 198.851562 121.695312 199.378906 120.65625 199.761719 119.738281 C 200.148438 118.824219 200.34375 118.164062 200.34375 117.761719 C 200.34375 117.519531 200.285156 117.394531 200.167969 117.394531 C 199.839844 117.394531 199.273438 117.800781 198.460938 118.613281 C 197.648438 119.425781 196.71875 120.496094 195.679688 121.8125 C 194.640625 123.132812 193.640625 124.558594 192.667969 126.082031 C 191.695312 127.605469 190.859375 129.097656 190.167969 130.5625 Z M 190.167969 130.5625 "/>
<path style=" stroke:none;fill-rule:nonzero;fill:rgb(100%,100%,100%);fill-opacity:1;" d="M 240.808594 125.3125 C 240.933594 125.195312 241.074219 125.136719 241.238281 125.136719 C 241.519531 125.136719 241.792969 125.320312 242.058594 125.6875 C 242.324219 126.050781 242.457031 126.414062 242.457031 126.78125 C 242.457031 127.027344 242.375 127.226562 242.214844 127.386719 C 241.929688 127.671875 241.332031 128.25 240.414062 129.125 C 239.503906 130 238.40625 131.007812 237.121094 132.144531 C 235.84375 133.277344 234.503906 134.386719 233.101562 135.46875 C 231.699219 136.546875 230.386719 137.4375 229.164062 138.144531 C 227.949219 138.855469 226.933594 139.207031 226.121094 139.207031 C 224.90625 139.207031 223.871094 138.746094 223.019531 137.8125 C 222.164062 136.875 221.738281 135.757812 221.738281 134.457031 C 221.738281 133.730469 221.898438 132.757812 222.226562 131.542969 C 222.550781 130.320312 222.96875 129.019531 223.476562 127.636719 C 223.980469 126.253906 224.480469 124.953125 224.964844 123.730469 C 223.824219 124.625 222.597656 125.695312 221.277344 126.9375 C 219.957031 128.175781 218.65625 129.472656 217.371094 130.832031 C 216.09375 132.195312 214.925781 133.507812 213.871094 134.769531 C 212.816406 136.027344 211.972656 137.152344 211.339844 138.144531 C 210.714844 139.140625 210.402344 139.863281 210.402344 140.3125 C 210.402344 141.082031 210.097656 141.46875 209.488281 141.46875 C 209.042969 141.46875 208.535156 141.246094 207.964844 140.800781 C 207.394531 140.351562 206.894531 139.730469 206.464844 138.9375 C 206.042969 138.144531 205.832031 137.246094 205.832031 136.230469 C 205.832031 135.777344 206.042969 134.933594 206.464844 133.699219 C 206.894531 132.457031 207.464844 131.050781 208.175781 129.488281 C 208.886719 127.925781 209.667969 126.40625 210.519531 124.925781 C 211.371094 123.441406 212.226562 122.214844 213.082031 121.238281 C 213.933594 120.261719 214.707031 119.769531 215.402344 119.769531 C 215.972656 119.769531 216.519531 119.945312 217.050781 120.292969 C 217.574219 120.632812 218.011719 121.019531 218.351562 121.449219 C 218.699219 121.871094 218.871094 122.226562 218.871094 122.511719 C 218.871094 122.59375 218.832031 122.675781 218.746094 122.761719 C 217.613281 123.894531 216.425781 125.355469 215.183594 127.144531 C 213.949219 128.933594 212.902344 130.839844 212.050781 132.875 C 213.347656 131.292969 214.839844 129.667969 216.527344 128 C 218.214844 126.332031 219.882812 124.800781 221.527344 123.394531 C 223.175781 121.996094 224.625 120.859375 225.882812 119.988281 C 227.136719 119.113281 227.992188 118.675781 228.445312 118.675781 C 229.011719 118.675781 229.574219 118.851562 230.121094 119.199219 C 230.667969 119.539062 231.113281 119.925781 231.457031 120.355469 C 231.800781 120.777344 231.976562 121.132812 231.976562 121.417969 C 231.976562 121.5 231.933594 121.582031 231.851562 121.65625 C 231.449219 122.066406 230.992188 122.800781 230.488281 123.855469 C 229.980469 124.910156 229.488281 126.097656 229.019531 127.417969 C 228.550781 128.738281 228.167969 130.019531 227.863281 131.261719 C 227.554688 132.496094 227.402344 133.484375 227.402344 134.21875 C 227.402344 134.988281 227.585938 135.375 227.957031 135.375 C 228.28125 135.375 228.878906 135.089844 229.746094 134.519531 C 230.621094 133.953125 231.605469 133.230469 232.707031 132.355469 C 233.800781 131.480469 234.910156 130.566406 236.027344 129.613281 C 237.144531 128.65625 238.132812 127.792969 238.988281 127.019531 C 239.839844 126.25 240.449219 125.683594 240.808594 125.3125 Z M 240.808594 125.3125 "/>
<path style=" stroke:none;fill-rule:nonzero;fill:rgb(100%,100%,100%);fill-opacity:1;" d="M 264.21875 125.5 C 264.335938 125.375 264.476562 125.3125 264.644531 125.3125 C 264.96875 125.3125 265.253906 125.488281 265.5 125.832031 C 265.742188 126.183594 265.863281 126.535156 265.863281 126.894531 C 265.863281 127.183594 265.78125 127.40625 265.613281 127.574219 C 265.167969 128.019531 264.386719 128.777344 263.269531 129.855469 C 262.148438 130.933594 260.800781 132.121094 259.21875 133.425781 C 257.632812 134.726562 255.898438 135.988281 254.007812 137.207031 C 252.117188 138.425781 250.167969 139.425781 248.15625 140.21875 C 246.148438 141.011719 244.167969 141.40625 242.21875 141.40625 C 240.550781 141.40625 239.15625 140.820312 238.039062 139.644531 C 236.921875 138.464844 236.363281 137.101562 236.363281 135.550781 C 236.363281 134.378906 236.75 132.925781 237.519531 131.199219 C 238.289062 129.46875 239.292969 127.660156 240.53125 125.769531 C 241.773438 123.882812 243.117188 122.113281 244.5625 120.46875 C 246.003906 118.824219 247.40625 117.484375 248.769531 116.449219 C 250.128906 115.414062 251.296875 114.894531 252.269531 114.894531 C 253.324219 114.894531 254.238281 115.128906 255.007812 115.59375 C 255.785156 116.058594 256.398438 116.628906 256.84375 117.300781 C 257.285156 117.96875 257.507812 118.589844 257.507812 119.15625 C 257.507812 120.175781 257.125 121.488281 256.351562 123.09375 C 255.582031 124.699219 254.515625 126.324219 253.15625 127.96875 C 251.792969 129.613281 250.21875 131.050781 248.425781 132.269531 C 246.640625 133.488281 244.75 134.238281 242.757812 134.519531 L 242.757812 134.644531 L 242.707031 134.949219 C 242.707031 136.53125 243.5 137.324219 245.082031 137.324219 C 246.378906 137.324219 247.800781 136.980469 249.34375 136.292969 C 250.890625 135.597656 252.445312 134.734375 254.007812 133.699219 C 255.570312 132.664062 257.0625 131.589844 258.488281 130.46875 C 259.910156 129.351562 261.117188 128.339844 262.113281 127.425781 C 263.105469 126.511719 263.804688 125.871094 264.21875 125.5 Z M 244.101562 130.5625 C 245.082031 130.394531 246.054688 129.917969 247.03125 129.125 C 248 128.332031 248.925781 127.378906 249.800781 126.261719 C 250.675781 125.144531 251.445312 124.007812 252.113281 122.855469 C 252.785156 121.695312 253.3125 120.65625 253.695312 119.738281 C 254.085938 118.824219 254.28125 118.164062 254.28125 117.761719 C 254.28125 117.519531 254.21875 117.394531 254.101562 117.394531 C 253.773438 117.394531 253.207031 117.800781 252.394531 118.613281 C 251.582031 119.425781 250.65625 120.496094 249.613281 121.8125 C 248.578125 123.132812 247.574219 124.558594 246.601562 126.082031 C 245.628906 127.605469 244.796875 129.097656 244.101562 130.5625 Z M 244.101562 130.5625 "/>
<path style=" stroke:none;fill-rule:nonzero;fill:rgb(100%,100%,100%);fill-opacity:1;" d="M 287.746094 125.4375 C 287.863281 125.3125 288.003906 125.25 288.171875 125.25 C 288.457031 125.25 288.730469 125.433594 288.996094 125.800781 C 289.257812 126.171875 289.390625 126.535156 289.390625 126.894531 C 289.390625 127.144531 289.308594 127.351562 289.140625 127.511719 C 288.855469 127.796875 288.253906 128.375 287.339844 129.25 C 286.425781 130.125 285.332031 131.132812 284.046875 132.269531 C 282.769531 133.402344 281.425781 134.507812 280.027344 135.582031 C 278.628906 136.660156 277.320312 137.558594 276.097656 138.269531 C 274.882812 138.980469 273.871094 139.332031 273.058594 139.332031 C 271.917969 139.332031 270.902344 138.859375 270.003906 137.90625 C 269.109375 136.949219 268.660156 135.839844 268.660156 134.582031 C 268.660156 133.769531 268.933594 132.828125 269.484375 131.75 C 270.03125 130.675781 270.671875 129.589844 271.402344 128.488281 C 272.136719 127.394531 272.777344 126.386719 273.328125 125.46875 C 273.875 124.550781 274.152344 123.871094 274.152344 123.425781 C 274.152344 123.019531 273.875 122.722656 273.328125 122.542969 C 272.777344 122.363281 272.097656 122.207031 271.285156 122.082031 C 269.332031 124.195312 267.726562 125.851562 266.464844 127.050781 C 265.207031 128.253906 264.230469 129.128906 263.535156 129.675781 C 262.847656 130.226562 262.371094 130.5625 262.109375 130.6875 C 261.84375 130.808594 261.734375 130.863281 261.777344 130.863281 C 261.371094 130.863281 260.996094 130.722656 260.652344 130.4375 C 260.300781 130.152344 260.128906 129.871094 260.128906 129.582031 C 260.128906 129.5 260.738281 128.902344 261.953125 127.78125 C 263.175781 126.664062 265.269531 124.582031 268.234375 121.542969 C 267.09375 121.332031 266.066406 121.007812 265.152344 120.5625 C 264.238281 120.121094 263.785156 119.40625 263.785156 118.425781 C 263.785156 117.78125 264.082031 117.03125 264.671875 116.175781 C 265.261719 115.324219 266.042969 114.5 267.015625 113.707031 C 267.996094 112.917969 269.050781 112.257812 270.183594 111.730469 C 271.320312 111.203125 272.417969 110.9375 273.472656 110.9375 C 274.695312 110.9375 275.570312 111.132812 276.097656 111.519531 C 276.625 111.902344 276.890625 112.417969 276.890625 113.0625 C 276.890625 113.917969 276.519531 114.957031 275.785156 116.175781 C 275.058594 117.394531 274.164062 118.652344 273.109375 119.949219 C 273.921875 120.199219 274.746094 120.496094 275.578125 120.84375 C 276.410156 121.183594 277.101562 121.652344 277.652344 122.238281 C 278.199219 122.832031 278.472656 123.613281 278.472656 124.582031 C 278.472656 124.953125 278.277344 125.605469 277.890625 126.542969 C 277.507812 127.472656 277.050781 128.507812 276.527344 129.644531 C 275.996094 130.785156 275.539062 131.839844 275.152344 132.8125 C 274.769531 133.785156 274.578125 134.519531 274.578125 135.011719 C 274.578125 135.332031 274.675781 135.488281 274.878906 135.488281 C 275.207031 135.488281 275.800781 135.207031 276.671875 134.644531 C 277.546875 134.078125 278.53125 133.355469 279.628906 132.480469 C 280.726562 131.605469 281.832031 130.691406 282.953125 129.738281 C 284.070312 128.78125 285.058594 127.917969 285.910156 127.144531 C 286.765625 126.375 287.375 125.808594 287.746094 125.4375 Z M 269.515625 117.636719 C 269.515625 118.246094 269.878906 118.714844 270.609375 119.042969 C 271.789062 117.863281 272.765625 116.785156 273.535156 115.8125 C 274.308594 114.832031 274.691406 114.144531 274.691406 113.738281 C 274.691406 113.496094 274.550781 113.375 274.277344 113.375 C 274.109375 113.375 273.78125 113.539062 273.296875 113.863281 C 272.808594 114.183594 272.269531 114.582031 271.683594 115.050781 C 271.089844 115.519531 270.582031 115.984375 270.152344 116.449219 C 269.726562 116.914062 269.515625 117.308594 269.515625 117.636719 Z M 269.515625 117.636719 "/>
<path style=" stroke:none;fill-rule:nonzero;fill:rgb(100%,100%,100%);fill-opacity:1;" d="M 319.125 125.4375 C 319.25 125.3125 319.367188 125.25 319.488281 125.25 C 319.8125 125.25 320.109375 125.433594 320.375 125.800781 C 320.636719 126.171875 320.769531 126.535156 320.769531 126.894531 C 320.769531 127.183594 320.6875 127.40625 320.53125 127.574219 C 320.242188 127.859375 319.644531 128.4375 318.726562 129.3125 C 317.816406 130.183594 316.710938 131.183594 315.40625 132.324219 C 314.105469 133.464844 312.765625 134.570312 311.382812 135.644531 C 310 136.722656 308.699219 137.621094 307.476562 138.332031 C 306.261719 139.042969 305.25 139.394531 304.4375 139.394531 C 303.296875 139.394531 302.28125 138.921875 301.382812 137.96875 C 300.492188 137.011719 300.050781 135.902344 300.050781 134.644531 C 300.050781 133.707031 300.261719 132.652344 300.6875 131.480469 C 301.117188 130.300781 301.65625 129.140625 302.3125 128 C 300.929688 129.257812 299.441406 130.660156 297.851562 132.207031 C 296.269531 133.75 294.710938 135.222656 293.1875 136.625 C 291.664062 138.027344 290.253906 139.175781 288.957031 140.074219 C 287.65625 140.964844 286.582031 141.40625 285.726562 141.40625 C 284.546875 141.40625 283.644531 140.953125 283.019531 140.042969 C 282.390625 139.125 282.070312 137.996094 282.070312 136.65625 C 282.070312 135.394531 282.5 133.871094 283.351562 132.082031 C 284.207031 130.292969 285.34375 128.441406 286.757812 126.53125 C 288.179688 124.621094 289.738281 122.828125 291.425781 121.144531 C 293.113281 119.457031 294.804688 118.097656 296.507812 117.0625 C 298.21875 116.019531 299.761719 115.5 301.144531 115.5 C 302.691406 115.5 303.953125 115.949219 304.925781 116.84375 C 305.90625 117.738281 306.394531 118.695312 306.394531 119.707031 C 306.394531 120.320312 306.21875 120.777344 305.875 121.082031 C 305.523438 121.390625 305.1875 121.542969 304.863281 121.542969 C 304.617188 121.542969 304.414062 121.289062 304.25 120.78125 C 304.085938 120.269531 303.886719 119.769531 303.644531 119.28125 C 303.398438 118.796875 302.972656 118.550781 302.363281 118.550781 C 301.792969 118.550781 301.011719 118.96875 300.019531 119.800781 C 299.023438 120.636719 297.9375 121.714844 296.757812 123.03125 C 295.578125 124.351562 294.40625 125.765625 293.25 127.269531 C 292.09375 128.769531 291.03125 130.234375 290.050781 131.65625 C 289.078125 133.082031 288.296875 134.289062 287.707031 135.28125 C 287.117188 136.277344 286.820312 136.914062 286.820312 137.199219 C 286.820312 137.28125 286.863281 137.324219 286.945312 137.324219 C 287.1875 137.324219 287.773438 136.957031 288.707031 136.230469 C 289.644531 135.496094 290.792969 134.550781 292.15625 133.394531 C 293.515625 132.238281 294.96875 130.996094 296.507812 129.675781 C 298.054688 128.359375 299.582031 127.097656 301.082031 125.894531 C 302.585938 124.695312 303.917969 123.699219 305.070312 122.90625 C 306.230469 122.113281 307.09375 121.675781 307.664062 121.59375 C 308.316406 121.558594 308.949219 121.726562 309.5625 122.09375 C 310.171875 122.457031 310.6875 122.851562 311.113281 123.28125 C 311.535156 123.707031 311.75 124.058594 311.75 124.34375 C 311.75 124.464844 311.730469 124.542969 311.695312 124.582031 C 311.242188 125.027344 310.703125 125.730469 310.070312 126.6875 C 309.445312 127.640625 308.816406 128.675781 308.1875 129.792969 C 307.554688 130.910156 307.023438 131.957031 306.601562 132.9375 C 306.179688 133.910156 305.96875 134.640625 305.96875 135.125 C 305.96875 135.410156 306.066406 135.550781 306.269531 135.550781 C 306.59375 135.550781 307.191406 135.269531 308.0625 134.699219 C 308.9375 134.128906 309.921875 133.402344 311.019531 132.511719 C 312.117188 131.613281 313.222656 130.691406 314.34375 129.738281 C 315.460938 128.78125 316.445312 127.917969 317.300781 127.144531 C 318.15625 126.375 318.761719 125.808594 319.125 125.4375 Z M 319.125 125.4375 "/>
<path style=" stroke:none;fill-rule:nonzero;fill:rgb(100%,100%,100%);fill-opacity:1;" d="M 337.40625 108.1875 C 338.257812 108.1875 339.070312 108.269531 339.84375 108.4375 C 340.617188 108.597656 341.25 108.921875 341.738281 109.40625 C 342.222656 109.894531 342.46875 110.667969 342.46875 111.730469 C 342.46875 112.621094 342.261719 113.410156 341.851562 114.105469 C 341.449219 114.792969 341.085938 115.136719 340.757812 115.136719 C 340.472656 115.136719 340.332031 114.792969 340.332031 114.105469 C 340.332031 113.410156 339.691406 112.941406 338.414062 112.699219 C 337.136719 112.457031 335.582031 112.332031 333.75 112.332031 L 332.289062 112.332031 C 330.664062 114.9375 329.0625 117.613281 327.476562 120.355469 C 325.894531 123.089844 324.449219 125.660156 323.144531 128.0625 C 321.84375 130.457031 320.8125 132.480469 320.039062 134.125 C 319.269531 135.769531 318.882812 136.839844 318.882812 137.324219 C 318.882812 137.484375 318.941406 137.5625 319.0625 137.5625 C 319.429688 137.5625 320.050781 137.269531 320.925781 136.6875 C 321.800781 136.097656 322.804688 135.339844 323.9375 134.40625 C 325.074219 133.46875 326.234375 132.472656 327.414062 131.417969 C 328.59375 130.355469 329.691406 129.359375 330.707031 128.425781 C 331.71875 127.488281 332.539062 126.726562 333.164062 126.136719 C 333.796875 125.546875 334.132812 125.25 334.175781 125.25 C 334.5 125.25 334.796875 125.445312 335.0625 125.832031 C 335.324219 126.222656 335.457031 126.597656 335.457031 126.957031 C 335.457031 127.203125 335.375 127.40625 335.21875 127.574219 C 334.929688 127.859375 334.289062 128.507812 333.289062 129.519531 C 332.296875 130.535156 331.085938 131.707031 329.664062 133.03125 C 328.25 134.351562 326.773438 135.652344 325.25 136.925781 C 323.726562 138.207031 322.304688 139.269531 320.976562 140.125 C 319.65625 140.980469 318.613281 141.40625 317.84375 141.40625 C 316.703125 141.40625 315.6875 141.042969 314.789062 140.3125 C 313.902344 139.578125 313.457031 138.558594 313.457031 137.261719 C 313.457031 136.53125 313.816406 135.34375 314.53125 133.699219 C 315.238281 132.050781 316.199219 130.09375 317.414062 127.824219 C 318.636719 125.546875 319.988281 123.125 321.46875 120.5625 C 322.953125 118 324.46875 115.464844 326.007812 112.949219 C 324.34375 113.234375 322.859375 113.550781 321.5625 113.894531 C 320.261719 114.238281 319.429688 114.589844 319.0625 114.957031 C 318.941406 115.078125 318.820312 115.136719 318.695312 115.136719 C 318.578125 115.136719 318.476562 115.035156 318.394531 114.832031 C 318.3125 114.632812 318.269531 114.390625 318.269531 114.105469 C 318.269531 113.082031 319.148438 112.199219 320.914062 111.449219 C 322.6875 110.699219 325.136719 109.996094 328.269531 109.34375 C 330.335938 106.019531 332.023438 103.359375 333.320312 101.363281 C 334.625 99.371094 335.6875 97.933594 336.5 97.042969 C 337.3125 96.144531 337.9375 95.699219 338.382812 95.699219 C 338.953125 95.699219 339.5 95.871094 340.03125 96.21875 C 340.554688 96.558594 340.992188 96.945312 341.34375 97.375 C 341.6875 97.800781 341.863281 98.152344 341.863281 98.4375 C 341.863281 98.519531 341.625 98.871094 341.15625 99.480469 C 340.6875 100.082031 340.097656 100.863281 339.382812 101.824219 C 338.675781 102.777344 337.914062 103.820312 337.101562 104.957031 C 336.289062 106.097656 335.539062 107.214844 334.851562 108.3125 C 335.296875 108.269531 335.730469 108.238281 336.15625 108.21875 C 336.585938 108.199219 337 108.1875 337.40625 108.1875 Z M 337.40625 108.1875 "/>
<path style=" stroke:none;fill-rule:nonzero;fill:rgb(100%,100%,100%);fill-opacity:1;" d="M 342.765625 109.707031 C 342.765625 109.105469 342.917969 108.207031 343.226562 107.011719 C 343.53125 105.808594 343.957031 104.582031 344.507812 103.324219 C 345.054688 102.058594 345.683594 100.980469 346.390625 100.082031 C 347.105469 99.1875 347.871094 98.738281 348.683594 98.738281 C 349.496094 98.738281 350.289062 99.035156 351.058594 99.625 C 351.828125 100.214844 352.46875 100.894531 352.976562 101.667969 C 353.488281 102.4375 353.746094 103.109375 353.746094 103.675781 C 353.746094 104.246094 353.4375 104.53125 352.828125 104.53125 C 352.382812 104.53125 351.8125 104.808594 351.121094 105.355469 C 350.433594 105.902344 349.742188 106.558594 349.046875 107.3125 C 348.359375 108.0625 347.78125 108.800781 347.308594 109.53125 C 346.84375 110.261719 346.609375 110.808594 346.609375 111.175781 C 346.609375 111.664062 346.28125 111.90625 345.632812 111.90625 C 345.070312 111.90625 344.449219 111.707031 343.777344 111.300781 C 343.101562 110.894531 342.765625 110.363281 342.765625 109.707031 Z M 329.058594 134.644531 C 329.058594 133.910156 329.289062 132.914062 329.757812 131.65625 C 330.226562 130.394531 330.839844 129.019531 331.589844 127.542969 C 332.339844 126.058594 333.140625 124.59375 333.996094 123.15625 C 334.851562 121.714844 335.652344 120.433594 336.402344 119.3125 C 337.152344 118.195312 337.773438 117.394531 338.265625 116.90625 C 338.625 116.539062 339.09375 116.355469 339.664062 116.355469 C 340.273438 116.355469 340.882812 116.527344 341.484375 116.875 C 342.09375 117.222656 342.613281 117.613281 343.039062 118.042969 C 343.46875 118.464844 343.683594 118.820312 343.683594 119.105469 C 343.683594 119.222656 343.664062 119.300781 343.621094 119.34375 C 343.257812 119.714844 342.730469 120.394531 342.039062 121.386719 C 341.351562 122.378906 340.601562 123.546875 339.789062 124.886719 C 338.976562 126.226562 338.199219 127.589844 337.464844 128.96875 C 336.734375 130.351562 336.125 131.589844 335.640625 132.6875 C 335.15625 133.785156 334.914062 134.578125 334.914062 135.0625 C 334.914062 135.390625 335.03125 135.550781 335.277344 135.550781 C 335.601562 135.550781 336.199219 135.269531 337.070312 134.699219 C 337.945312 134.128906 338.929688 133.402344 340.027344 132.511719 C 341.125 131.613281 342.230469 130.691406 343.351562 129.738281 C 344.46875 128.78125 345.453125 127.917969 346.308594 127.144531 C 347.164062 126.375 347.769531 125.808594 348.132812 125.4375 C 348.257812 125.3125 348.375 125.25 348.496094 125.25 C 348.820312 125.25 349.117188 125.445312 349.382812 125.832031 C 349.644531 126.222656 349.777344 126.597656 349.777344 126.957031 C 349.777344 127.203125 349.695312 127.40625 349.539062 127.574219 C 349.25 127.859375 348.640625 128.4375 347.703125 129.3125 C 346.773438 130.183594 345.664062 131.183594 344.382812 132.324219 C 343.101562 133.464844 341.773438 134.570312 340.390625 135.644531 C 339.007812 136.722656 337.695312 137.621094 336.453125 138.332031 C 335.21875 139.042969 334.214844 139.394531 333.445312 139.394531 C 332.304688 139.394531 331.289062 138.921875 330.390625 137.96875 C 329.5 137.011719 329.058594 135.902344 329.058594 134.644531 Z M 329.058594 134.644531 "/>
<path style=" stroke:none;fill-rule:nonzero;fill:rgb(100%,100%,100%);fill-opacity:1;" d="M 373.613281 125.5 C 373.730469 125.375 373.855469 125.3125 373.980469 125.3125 C 374.296875 125.3125 374.589844 125.488281 374.855469 125.832031 C 375.125 126.183594 375.261719 126.535156 375.261719 126.894531 C 375.261719 127.390625 374.871094 127.890625 374.09375 128.394531 C 373.324219 128.902344 372.304688 129.394531 371.042969 129.863281 C 369.785156 130.332031 368.402344 130.746094 366.894531 131.113281 C 365.394531 131.476562 363.9375 131.757812 362.519531 131.957031 C 361.582031 133.5 360.472656 134.996094 359.199219 136.4375 C 357.917969 137.882812 356.546875 139.074219 355.082031 140.011719 C 353.617188 140.941406 352.113281 141.40625 350.574219 141.40625 C 348.21875 141.40625 346.53125 140.847656 345.511719 139.730469 C 344.496094 138.613281 343.988281 137.339844 343.988281 135.917969 C 343.988281 135.390625 344.160156 134.652344 344.5 133.699219 C 344.847656 132.738281 345.285156 131.765625 345.8125 130.769531 C 346.347656 129.777344 346.835938 128.957031 347.28125 128.300781 C 347.15625 128.019531 347.074219 127.722656 347.03125 127.417969 C 346.996094 127.113281 346.980469 126.777344 346.980469 126.417969 C 346.980469 125.394531 347.375 124.339844 348.167969 123.238281 C 348.957031 122.144531 349.960938 121.121094 351.175781 120.167969 C 352.398438 119.207031 353.679688 118.4375 355.019531 117.855469 C 356.359375 117.265625 357.578125 116.96875 358.675781 116.96875 C 360.140625 116.96875 361.410156 117.355469 362.488281 118.125 C 363.566406 118.894531 364.398438 119.839844 364.988281 120.957031 C 365.578125 122.078125 365.875 123.164062 365.875 124.21875 C 365.875 124.664062 365.738281 125.277344 365.46875 126.050781 C 365.203125 126.824219 364.847656 127.695312 364.40625 128.667969 C 366.355469 128.425781 368.175781 128.039062 369.863281 127.511719 C 371.550781 126.984375 372.800781 126.3125 373.613281 125.5 Z M 349.050781 137.199219 C 349.050781 138.050781 349.292969 138.480469 349.78125 138.480469 C 350.46875 138.480469 351.410156 137.882812 352.613281 136.6875 C 353.816406 135.488281 355.023438 134.03125 356.238281 132.324219 C 355.222656 132.28125 354.25 132.183594 353.3125 132.019531 C 352.378906 131.863281 351.527344 131.640625 350.75 131.355469 C 350.304688 132.246094 349.910156 133.246094 349.5625 134.363281 C 349.222656 135.484375 349.050781 136.425781 349.050781 137.199219 Z M 350.636719 126.167969 C 350.636719 127.019531 351.40625 127.683594 352.949219 128.15625 C 354.488281 128.621094 356.339844 128.894531 358.5 128.96875 C 359.429688 127.425781 360.191406 125.957031 360.78125 124.550781 C 361.371094 123.152344 361.667969 122.042969 361.667969 121.230469 C 361.667969 120.375 361.316406 119.949219 360.625 119.949219 C 359.449219 119.949219 358.273438 120.195312 357.09375 120.6875 C 355.910156 121.175781 354.832031 121.765625 353.855469 122.457031 C 352.878906 123.144531 352.097656 123.839844 351.511719 124.53125 C 350.925781 125.21875 350.636719 125.765625 350.636719 126.167969 Z M 350.636719 126.167969 "/>
<path style=" stroke:none;fill-rule:nonzero;fill:rgb(100%,100%,100%);fill-opacity:1;" d="M 404.140625 125.3125 C 404.265625 125.195312 404.40625 125.136719 404.566406 125.136719 C 404.847656 125.136719 405.121094 125.320312 405.390625 125.6875 C 405.652344 126.050781 405.785156 126.414062 405.785156 126.78125 C 405.785156 127.027344 405.703125 127.226562 405.546875 127.386719 C 405.257812 127.671875 404.660156 128.25 403.742188 129.125 C 402.832031 130 401.734375 131.007812 400.453125 132.144531 C 399.171875 133.277344 397.832031 134.386719 396.429688 135.46875 C 395.027344 136.546875 393.714844 137.4375 392.492188 138.144531 C 391.277344 138.855469 390.265625 139.207031 389.453125 139.207031 C 388.234375 139.207031 387.203125 138.746094 386.347656 137.8125 C 385.492188 136.875 385.066406 135.757812 385.066406 134.457031 C 385.066406 133.730469 385.226562 132.757812 385.554688 131.542969 C 385.878906 130.320312 386.296875 129.019531 386.804688 127.636719 C 387.308594 126.253906 387.808594 124.953125 388.296875 123.730469 C 387.15625 124.625 385.925781 125.695312 384.609375 126.9375 C 383.285156 128.175781 381.984375 129.472656 380.703125 130.832031 C 379.421875 132.195312 378.253906 133.507812 377.203125 134.769531 C 376.144531 136.027344 375.300781 137.152344 374.671875 138.144531 C 374.046875 139.140625 373.734375 139.863281 373.734375 140.3125 C 373.734375 141.082031 373.425781 141.46875 372.816406 141.46875 C 372.371094 141.46875 371.863281 141.246094 371.296875 140.800781 C 370.722656 140.351562 370.222656 139.730469 369.796875 138.9375 C 369.371094 138.144531 369.160156 137.246094 369.160156 136.230469 C 369.160156 135.777344 369.371094 134.933594 369.796875 133.699219 C 370.222656 132.457031 370.796875 131.050781 371.503906 129.488281 C 372.21875 127.925781 372.996094 126.40625 373.847656 124.925781 C 374.703125 123.441406 375.554688 122.214844 376.410156 121.238281 C 377.265625 120.261719 378.035156 119.769531 378.734375 119.769531 C 379.300781 119.769531 379.847656 119.945312 380.378906 120.292969 C 380.90625 120.632812 381.339844 121.019531 381.679688 121.449219 C 382.027344 121.871094 382.203125 122.226562 382.203125 122.511719 C 382.203125 122.59375 382.160156 122.675781 382.078125 122.761719 C 380.941406 123.894531 379.753906 125.355469 378.515625 127.144531 C 377.277344 128.933594 376.234375 130.839844 375.378906 132.875 C 376.675781 131.292969 378.171875 129.667969 379.859375 128 C 381.546875 126.332031 383.210938 124.800781 384.859375 123.394531 C 386.503906 121.996094 387.953125 120.859375 389.210938 119.988281 C 390.46875 119.113281 391.320312 118.675781 391.773438 118.675781 C 392.34375 118.675781 392.902344 118.851562 393.453125 119.199219 C 393.996094 119.539062 394.441406 119.925781 394.785156 120.355469 C 395.128906 120.777344 395.304688 121.132812 395.304688 121.417969 C 395.304688 121.5 395.265625 121.582031 395.179688 121.65625 C 394.777344 122.066406 394.320312 122.800781 393.816406 123.855469 C 393.308594 124.910156 392.816406 126.097656 392.347656 127.417969 C 391.878906 128.738281 391.496094 130.019531 391.191406 131.261719 C 390.882812 132.496094 390.734375 133.484375 390.734375 134.21875 C 390.734375 134.988281 390.914062 135.375 391.285156 135.375 C 391.609375 135.375 392.207031 135.089844 393.078125 134.519531 C 393.953125 133.953125 394.933594 133.230469 396.035156 132.355469 C 397.128906 131.480469 398.238281 130.566406 399.359375 129.613281 C 400.472656 128.65625 401.460938 127.792969 402.316406 127.019531 C 403.171875 126.25 403.777344 125.683594 404.140625 125.3125 Z M 404.140625 125.3125 "/>
</g>
</svg>
